<svg width="72" height="71" viewBox="0 0 72 71" fill="none" xmlns="http://www.w3.org/2000/svg">
<path d="M35.3143 0L65.8974 17.6571V52.9714L35.3143 70.6286L4.73122 52.9714V17.6571L35.3143 0Z" fill="#9747FF"/>
<path d="M35.3143 0L70.6286 35.3143L35.3143 70.6286L0 35.3143L35.3143 0Z" fill="#25135A"/>
<path d="M17.18 21.7221L25.3121 48.3556H25.6139L33.746 21.7221H43.5827L31.3135 58.0857H19.6125L7.34332 21.7221H17.18Z" fill="#3BA29D"/>
<path d="M46.8408 39.9039V35.607L55.5944 28.8421C56.1981 28.3686 56.7308 27.9365 57.1924 27.5459C57.654 27.1435 58.0151 26.7351 58.2755 26.3208C58.5478 25.9065 58.6839 25.4389 58.6839 24.9181C58.6839 24.1368 58.3524 23.545 57.6896 23.1425C57.0385 22.7282 56.2513 22.5211 55.3281 22.5211C54.3337 22.5211 53.5347 22.7519 52.931 23.2135C52.3273 23.6752 52.0255 24.3736 52.0255 25.3087H46.2904C46.2904 22.9413 47.1427 21.1006 48.8472 19.7867C50.5636 18.4728 52.7476 17.8158 55.3991 17.8158C57.222 17.8158 58.8022 18.1295 60.1398 18.7569C61.4893 19.3842 62.5309 20.2306 63.2648 21.2959C63.9987 22.3613 64.3657 23.545 64.3657 24.8471C64.3657 25.9124 64.1408 26.9008 63.691 27.8123C63.253 28.7237 62.5724 29.6056 61.6491 30.4579C60.7376 31.3101 59.5657 32.1742 58.1335 33.0502L55.4346 34.8257V35.0211H64.49V39.9039H46.8408Z" fill="#1B446B"/>
</svg>
