<svg width="171" height="78" viewBox="0 0 171 78" fill="none" xmlns="http://www.w3.org/2000/svg">
<path d="M35.3143 7L65.8974 24.6571V59.9714L35.3143 77.6286L4.73122 59.9714V24.6571L35.3143 7Z" fill="#9747FF"/>
<path d="M35.3143 7L70.6286 42.3143L35.3143 77.6286L0 42.3143L35.3143 7Z" fill="#25135A"/>
<path d="M17.1799 28.7221L25.312 55.3556H25.6139L33.746 28.7221H43.5826L31.3134 65.0857H19.6124L7.34326 28.7221H17.1799Z" fill="#3BA29D"/>
<path d="M46.8408 46.9039V42.607L55.5943 35.8421C56.198 35.3686 56.7307 34.9365 57.1923 34.5459C57.654 34.1435 58.015 33.7351 58.2754 33.3208C58.5477 32.9065 58.6838 32.4389 58.6838 31.9181C58.6838 31.1368 58.3524 30.545 57.6895 30.1425C57.0385 29.7282 56.2513 29.5211 55.328 29.5211C54.3337 29.5211 53.5347 29.7519 52.931 30.2135C52.3273 30.6752 52.0254 31.3736 52.0254 32.3087H46.2903C46.2903 29.9413 47.1426 28.1006 48.8472 26.7867C50.5636 25.4728 52.7475 24.8158 55.399 24.8158C57.2219 24.8158 58.8022 25.1295 60.1398 25.7569C61.4892 26.3842 62.5309 27.2306 63.2648 28.2959C63.9987 29.3613 64.3656 30.545 64.3656 31.8471C64.3656 32.9124 64.1407 33.9008 63.6909 34.8123C63.2529 35.7237 62.5723 36.6056 61.649 37.4579C60.7376 38.3101 59.5657 39.1742 58.1334 40.0502L55.4345 41.8257V42.0211H64.4899V46.9039H46.8408Z" fill="#1B446B"/>
<path d="M79.7884 21.3636L85.0085 54.8366H85.4347L101.734 21.3636H111.557L89.1634 65H77.8494L69.9659 21.3636H79.7884Z" fill="#216E6E"/>
<path d="M102.56 65L105.003 50.4545H106.963L104.52 65H102.56ZM106.494 48.1392C106.068 48.1392 105.756 48.0019 105.557 47.7273C105.358 47.4527 105.273 47.1591 105.301 46.8466C105.33 46.5625 105.467 46.2973 105.713 46.0511C105.959 45.7955 106.258 45.6676 106.608 45.6676C106.939 45.6676 107.233 45.7812 107.489 46.0085C107.754 46.2263 107.863 46.5436 107.815 46.9602C107.777 47.3201 107.621 47.6089 107.347 47.8267C107.081 48.035 106.797 48.1392 106.494 48.1392ZM120.869 53.9347L119.037 54.1335C118.923 53.3949 118.634 52.822 118.17 52.4148C117.706 52.0076 117.048 51.804 116.196 51.804C115.211 51.804 114.373 52.0455 113.682 52.5284C113 53.0019 112.593 53.6222 112.46 54.3892C112.366 55.0426 112.503 55.5445 112.872 55.8949C113.251 56.2358 113.805 56.4915 114.534 56.6619L116.835 57.2017C118.028 57.4858 118.871 57.9687 119.364 58.6506C119.866 59.3229 120.041 60.1515 119.889 61.1364C119.747 61.9792 119.387 62.7083 118.81 63.3239C118.232 63.9489 117.503 64.4318 116.622 64.7727C115.751 65.1136 114.79 65.2841 113.739 65.2841C112.214 65.2841 111.026 64.9384 110.173 64.2472C109.33 63.5559 108.895 62.5852 108.866 61.3352L110.798 61.1506C110.836 61.9744 111.111 62.6089 111.622 63.054C112.143 63.5085 112.877 63.7358 113.824 63.7358C114.884 63.7358 115.789 63.4896 116.537 62.9972C117.295 62.5047 117.74 61.8655 117.872 61.0795C117.976 60.4167 117.844 59.9053 117.474 59.5455C117.115 59.1761 116.594 58.9157 115.912 58.7642L113.639 58.2244C112.427 57.9403 111.551 57.4574 111.011 56.7756C110.481 56.0843 110.301 55.2699 110.472 54.3324C110.689 53.0634 111.319 52.0691 112.361 51.3494C113.412 50.6203 114.69 50.2557 116.196 50.2557C117.607 50.2557 118.715 50.5777 119.52 51.2216C120.325 51.8561 120.775 52.7604 120.869 53.9347ZM122.833 65L125.276 50.4545H127.237L124.793 65H122.833ZM126.768 48.1392C126.342 48.1392 126.029 48.0019 125.83 47.7273C125.631 47.4527 125.546 47.1591 125.575 46.8466C125.603 46.5625 125.74 46.2973 125.987 46.0511C126.233 45.7955 126.531 45.6676 126.881 45.6676C127.213 45.6676 127.506 45.7812 127.762 46.0085C128.027 46.2263 128.136 46.5436 128.089 46.9602C128.051 47.3201 127.895 47.6089 127.62 47.8267C127.355 48.035 127.071 48.1392 126.768 48.1392ZM134.935 65.2841C133.685 65.2841 132.625 64.9621 131.754 64.3182C130.882 63.6837 130.262 62.7936 129.893 61.6477C129.523 60.5114 129.462 59.1951 129.708 57.6989C129.954 56.2311 130.442 54.9384 131.171 53.821C131.9 52.7036 132.795 51.8324 133.856 51.2074C134.926 50.5729 136.081 50.2557 137.322 50.2557C138.638 50.2557 139.732 50.5871 140.603 51.25C141.474 51.9129 142.09 52.8125 142.45 53.9489C142.809 55.0758 142.876 56.3447 142.648 57.7557C142.412 59.2235 141.929 60.5208 141.2 61.6477C140.47 62.7841 139.566 63.6742 138.487 64.3182C137.416 64.9621 136.233 65.2841 134.935 65.2841ZM135.106 63.679C136.043 63.679 136.896 63.4091 137.663 62.8693C138.439 62.339 139.088 61.6193 139.609 60.7102C140.129 59.8106 140.48 58.7973 140.66 57.6705C140.83 56.6098 140.807 55.6439 140.589 54.7727C140.38 53.892 139.987 53.1866 139.41 52.6562C138.842 52.1259 138.098 51.8608 137.18 51.8608C136.28 51.8608 135.447 52.1259 134.68 52.6562C133.922 53.1866 133.278 53.9015 132.748 54.8011C132.227 55.6913 131.877 56.6951 131.697 57.8125C131.507 58.9299 131.517 59.929 131.725 60.8097C131.943 61.6903 132.341 62.3864 132.918 62.8977C133.496 63.4186 134.225 63.679 135.106 63.679ZM148.526 55.8381L146.991 65H145.031L147.474 50.4545H149.378L148.952 52.8693H149.094C149.548 52.0739 150.197 51.4441 151.04 50.9801C151.883 50.5161 152.815 50.2841 153.838 50.2841C155.306 50.2841 156.433 50.7528 157.219 51.6903C158.005 52.6278 158.26 53.892 157.986 55.483L156.366 65H154.406L155.94 55.7528C156.13 54.6165 155.955 53.7121 155.415 53.0398C154.875 52.358 154.051 52.017 152.943 52.017C151.883 52.017 150.931 52.3627 150.088 53.054C149.245 53.7358 148.724 54.6638 148.526 55.8381Z" fill="#3BA29D"/>
<path d="M110.56 40L113.003 25.4545H114.963L112.52 40H110.56ZM114.494 23.1392C114.068 23.1392 113.756 23.0019 113.557 22.7273C113.358 22.4527 113.273 22.1591 113.301 21.8466C113.33 21.5625 113.467 21.2973 113.713 21.0511C113.959 20.7955 114.258 20.6676 114.608 20.6676C114.939 20.6676 115.233 20.7812 115.489 21.0085C115.754 21.2263 115.863 21.5436 115.815 21.9602C115.777 22.3201 115.621 22.6089 115.347 22.8267C115.081 23.035 114.797 23.1392 114.494 23.1392ZM116.938 40L119.381 25.4545H121.284L120.886 27.8409H121C121.445 27.017 122.07 26.3873 122.875 25.9517C123.689 25.5066 124.523 25.2841 125.375 25.2841C125.744 25.2841 126.076 25.3172 126.369 25.3835C126.672 25.4498 126.928 25.5398 127.136 25.6534L126.241 27.3295C126.09 27.2538 125.901 27.1922 125.673 27.1449C125.446 27.0975 125.181 27.0739 124.878 27.0739C123.808 27.0739 122.851 27.4242 122.009 28.125C121.166 28.8258 120.65 29.7301 120.46 30.8381L118.898 40H116.938ZM135.556 25.4545L135.272 27.0597H128.283L128.582 25.4545H135.556ZM131.21 21.9886H133.198L130.826 36.321C130.693 37.0597 130.812 37.6042 131.181 37.9545C131.55 38.3144 132.033 38.4943 132.63 38.4943C132.781 38.4943 132.947 38.4801 133.127 38.4517C133.307 38.4328 133.473 38.3996 133.624 38.3523L133.766 39.9432C133.511 40.0284 133.264 40.0852 133.028 40.1136C132.8 40.1515 132.493 40.1799 132.104 40.1989C131.034 40.2083 130.163 39.9148 129.491 39.3182C128.828 38.7216 128.601 37.8078 128.809 36.5767L131.21 21.9886ZM140.826 40.2841C140.012 40.2841 139.282 40.1231 138.638 39.8011C137.995 39.4886 137.512 39.0152 137.19 38.3807C136.858 37.7557 136.768 36.9697 136.92 36.0227C137.024 35.3883 137.228 34.8295 137.531 34.3466C137.843 33.8542 138.255 33.4375 138.766 33.0966C139.278 32.7557 139.903 32.4763 140.641 32.2585C141.38 32.0312 142.223 31.8655 143.17 31.7614C143.927 31.6856 144.595 31.6051 145.173 31.5199C145.76 31.4347 146.224 31.3021 146.565 31.1222C146.906 30.9422 147.09 30.6723 147.119 30.3125L147.175 29.8295C147.299 28.911 147.128 28.1818 146.664 27.642C146.21 27.1023 145.466 26.8324 144.434 26.8324C143.496 26.8324 142.673 27.0455 141.962 27.4716C141.252 27.8883 140.727 28.4138 140.386 29.0483L138.567 28.7358C139.107 27.6089 139.931 26.7472 141.039 26.1506C142.147 25.554 143.335 25.2557 144.604 25.2557C145.58 25.2557 146.442 25.4309 147.19 25.7812C147.947 26.1222 148.506 26.6383 148.866 27.3295C149.235 28.0114 149.335 28.8636 149.164 29.8864L147.488 40H145.585L146.011 37.5142H145.925C145.376 38.357 144.652 39.0294 143.752 39.5312C142.862 40.0331 141.887 40.2841 140.826 40.2841ZM141.437 38.7926C142.242 38.7926 142.999 38.5938 143.71 38.196C144.42 37.8078 145.016 37.2727 145.499 36.5909C145.992 35.9091 146.314 35.1373 146.465 34.2756L146.806 32.2869C146.513 32.4669 146.172 32.6089 145.783 32.7131C145.405 32.8078 144.997 32.8883 144.562 32.9545C144.126 33.0208 143.695 33.0824 143.269 33.1392C141.915 33.3097 140.873 33.6316 140.144 34.1051C139.415 34.5691 138.984 35.1705 138.852 35.9091C138.71 36.7708 138.871 37.4669 139.335 37.9972C139.808 38.5275 140.509 38.7926 141.437 38.7926ZM157.058 20.625L153.82 40H151.859L155.098 20.625H157.058Z" fill="#3BA29D"/>
</svg>
