<svg width="62" height="62" viewBox="0 0 62 62" fill="none" xmlns="http://www.w3.org/2000/svg">
<path d="M10.3333 33.5833L10.3333 28.4166L41.3333 28.4166L41.3333 23.25L46.5 23.25L46.5 28.4166L51.6667 28.4166L51.6667 33.5833L46.5 33.5833L46.5 38.75L41.3333 38.75L41.3333 33.5833L10.3333 33.5833ZM36.1667 43.9166L41.3333 43.9166L41.3333 38.75L36.1667 38.75L36.1667 43.9166ZM36.1667 43.9166L31 43.9166L31 49.0833L36.1667 49.0833L36.1667 43.9166ZM36.1667 18.0833L41.3333 18.0833L41.3333 23.25L36.1667 23.25L36.1667 18.0833ZM36.1667 18.0833L31 18.0833L31 12.9166L36.1667 12.9166L36.1667 18.0833Z" fill="#9747FF"/>
</svg>
